<svg width="32" height="30" viewBox="0 0 32 30" fill="none" xmlns="http://www.w3.org/2000/svg">
<path d="M30.2 18.1867L16 28.5067L1.8 18.1867C1.60964 18.0467 1.46843 17.85 1.39658 17.6249C1.32473 17.3998 1.32593 17.1577 1.4 16.9333L3.02667 11.8933L6.28 1.88001C6.31156 1.79842 6.36179 1.72536 6.42667 1.66668C6.53232 1.57017 6.67024 1.51666 6.81334 1.51666C6.95643 1.51666 7.09435 1.57017 7.2 1.66668C7.26851 1.7329 7.31899 1.8155 7.34667 1.90668L10.6 11.8933H21.4L24.6533 1.88001C24.6849 1.79842 24.7351 1.72536 24.8 1.66668C24.9057 1.57017 25.0436 1.51666 25.1867 1.51666C25.3298 1.51666 25.4677 1.57017 25.5733 1.66668C25.6418 1.7329 25.6923 1.8155 25.72 1.90668L28.9733 11.92L30.6667 16.9333C30.734 17.1647 30.725 17.4115 30.6409 17.6373C30.5569 17.8631 30.4022 18.0557 30.2 18.1867V18.1867Z" stroke="white" stroke-width="2" stroke-linecap="round" stroke-linejoin="round"/>
</svg>
